HIERARCHY
ROOT Hips
{
	OFFSET 53.860100 -17.788815 94.048897
	CHANNELS 6 Xposition Yposition Zposition Xrotation Yrotation Zrotation
	JOINT spine
	{
		OFFSET 0.000000 -0.448574 7.800583
		CHANNELS 3 Xrotation Yrotation Zrotation
		JOINT spine1
		{
			OFFSET 0.000000 -0.000002 10.136398
			CHANNELS 3 Xrotation Yrotation Zrotation
			JOINT spine2
			{
				OFFSET 0.000000 0.000000 9.712509
				CHANNELS 3 Xrotation Yrotation Zrotation
				JOINT Neck
				{
					OFFSET 0.000000 -1.188875 24.936104
					CHANNELS 3 Xrotation Yrotation Zrotation
					JOINT Head
					{
						OFFSET 0.000000 0.000000 7.533844
						CHANNELS 3 Xrotation Yrotation Zrotation
						End Site
						{
							OFFSET 0.000000 6.014017 18.236099
						}
					}
				}
				JOINT RightShoulder
				{
					OFFSET -4.089649 0.569454 10.488808
					CHANNELS 3 Xrotation Yrotation Zrotation
					JOINT RightArm
					{
						OFFSET 0.000000 -0.000002 13.757004
						CHANNELS 3 Xrotation Yrotation Zrotation
						JOINT RightArmRoll
						{
							OFFSET 0.000000 -0.000002 6.944778
							CHANNELS 3 Xrotation Yrotation Zrotation
							JOINT RightForeArm
							{
								OFFSET 0.000000 -0.000004 20.227692
								CHANNELS 3 Xrotation Yrotation Zrotation
								JOINT RightForeArmRoll
								{
									OFFSET 0.000000 0.000000 7.793121
									CHANNELS 3 Xrotation Yrotation Zrotation
									JOINT RightHand
									{
										OFFSET 0.000000 -0.000004 15.639099
										CHANNELS 3 Xrotation Yrotation Zrotation
										End Site
										{
											OFFSET 0.000000 0.000000 0.100006
										}
									}
								}
							}
						}
					}
				}
				JOINT LeftShoulder
				{
					OFFSET 4.089649 0.569454 10.488808
					CHANNELS 3 Xrotation Yrotation Zrotation
					JOINT LeftArm
					{
						OFFSET 0.000000 -0.000002 13.757004
						CHANNELS 3 Xrotation Yrotation Zrotation
						JOINT LeftArmRoll
						{
							OFFSET 0.000000 -0.000002 6.944778
							CHANNELS 3 Xrotation Yrotation Zrotation
							JOINT LeftForeArm
							{
								OFFSET 0.000000 -0.000004 20.227692
								CHANNELS 3 Xrotation Yrotation Zrotation
								JOINT LeftForeArmRoll
								{
									OFFSET 0.000000 0.000000 7.793121
									CHANNELS 3 Xrotation Yrotation Zrotation
									JOINT LeftHand
									{
										OFFSET 0.000000 -0.000004 15.639099
										CHANNELS 3 Xrotation Yrotation Zrotation
										End Site
										{
											OFFSET 0.000000 0.000000 0.100006
										}
									}
								}
							}
						}
					}
				}
			}
		}
	}
	JOINT RightUpLeg
	{
		OFFSET -6.914150 1.063580 -1.267883
		CHANNELS 3 Xrotation Yrotation Zrotation
		JOINT RightUpLegRoll
		{
			OFFSET 0.000000 -0.000002 18.337799
			CHANNELS 3 Xrotation Yrotation Zrotation
			JOINT RightLeg
			{
				OFFSET 0.000000 0.000002 -22.708504
				CHANNELS 3 Xrotation Yrotation Zrotation
				JOINT RightLegRoll
				{
					OFFSET 0.000000 -0.000002 22.782799
					CHANNELS 3 Xrotation Yrotation Zrotation
					JOINT RightFoot
					{
						OFFSET 0.000000 -0.000004 18.962898
						CHANNELS 3 Xrotation Yrotation Zrotation
						JOINT RightToeBase
						{
							OFFSET 0.000000 -0.000002 15.852005
							CHANNELS 3 Xrotation Yrotation Zrotation
							End Site
							{
								OFFSET 0.006718 0.884892 7.677017
							}
						}
					}
				}
			}
		}
	}
	JOINT LeftUpLeg
	{
		OFFSET 6.914150 1.063580 -1.267883
		CHANNELS 3 Xrotation Yrotation Zrotation
		JOINT LeftUpLegRoll
		{
			OFFSET 0.000000 -0.000002 18.337898
			CHANNELS 3 Xrotation Yrotation Zrotation
			JOINT LeftLeg
			{
				OFFSET 0.000000 -0.000004 22.708405
				CHANNELS 3 Xrotation Yrotation Zrotation
				JOINT LeftLegRoll
				{
					OFFSET 0.000000 -0.000004 22.993393
					CHANNELS 3 Xrotation Yrotation Zrotation
					JOINT LeftFoot
					{
						OFFSET 0.000000 -0.000004 18.752197
						CHANNELS 3 Xrotation Yrotation Zrotation
						JOINT LeftToeBase
						{
							OFFSET 0.000000 -0.000002 15.852005
							CHANNELS 3 Xrotation Yrotation Zrotation
							End Site
							{
								OFFSET -0.030113 0.884892 7.677017
							}
						}
					}
				}
			}
		}
	}
}
MOTION
Frames: 6
Frame Time: 0.041667
53.820400 -17.102016 94.081001 -7.072251 -0.320228 -2.377899 -1.188984 0.366580 0.330512 1.623525 0.740763 0.671977 3.268618 0.748738 0.663130 15.692585 -0.694715 -1.674057 -14.974114 -9.239031 -1.916028 -14.320981 -74.424050 -17.351097 124.984430 -50.038164 52.815517 0.000000 0.000002 0.000000 105.222964 11.108095 -22.400985 -0.000001 0.000005 -3.000000 -5.000273 -7.998972 0.000200 5.307577 66.245049 -5.066095 -47.498484 116.618827 72.304082 0.000001 -0.000000 0.000002 110.758088 -2.784924 15.785167 -0.000002 0.000021 3.000002 -5.000294 7.999062 -0.000136 1.042167 -174.562888 0.767902 -179.999991 0.000004 -0.940007 166.897489 1.020728 -0.910435 -0.000011 -0.000001 0.093783 71.069034 5.404188 6.018457 25.458072 -7.355609 0.001692 3.434619 178.850061 5.926858 -0.000004 -0.000004 -1.382911 -10.899420 4.433930 0.671048 -0.000005 0.000001 -0.208775 72.550850 -7.271109 -0.784492 25.456960 7.355606 -0.000006 
53.818802 -17.101818 94.080994 -7.083468 -0.314868 -2.362636 -1.179371 0.364831 0.329423 1.643006 0.736593 0.669269 3.288108 0.744535 0.660466 15.548444 -0.685973 -1.686453 -14.896282 -9.258850 -1.922231 -14.320461 -74.416277 -17.350350 124.994224 -50.287637 52.846970 0.000001 0.000001 0.000003 105.432610 11.208952 -22.667521 0.000001 0.000008 -3.000000 -5.000272 -7.998970 0.000198 5.240505 66.240725 -4.991390 -47.454358 116.520473 72.625600 0.000002 -0.000002 0.000000 110.743629 -2.851138 15.932933 -0.000006 0.000022 3.000002 -5.000296 7.999062 -0.000133 1.060526 -174.571931 0.768321 -179.999991 0.000005 -0.941004 166.902789 1.017822 -0.910214 -0.000012 -0.000001 0.093778 71.070762 5.406302 6.014224 25.458065 -7.355610 0.001693 3.436208 178.843094 5.925638 -0.000005 -0.000004 -1.383310 -10.913382 4.428430 0.671423 -0.000004 0.000000 -0.209064 72.552168 -7.269012 -0.790284 25.456959 7.355606 -0.000006 
53.817501 -17.102118 94.080994 -7.094582 -0.308873 -2.347072 -1.169365 0.362845 0.328268 1.663285 0.731813 0.666332 3.308386 0.739720 0.657580 15.399990 -0.673111 -1.699209 -14.822059 -9.282596 -1.929291 -14.313972 -74.397289 -17.342834 125.002598 -50.556125 52.874786 -0.000000 0.000000 0.000001 105.672391 11.320395 -22.969976 -0.000000 0.000007 -3.000001 -5.000274 -7.998972 0.000197 5.159303 66.234619 -4.901087 -47.415395 116.430997 72.944870 0.000002 -0.000001 -0.000001 110.721929 -2.917066 16.072436 -0.000004 0.000021 3.000001 -5.000292 7.999059 -0.000132 1.079513 -174.581957 0.768324 -179.999991 0.000005 -0.942001 166.909305 1.014922 -0.910013 -0.000012 -0.000001 0.093767 71.072162 5.408709 6.009358 25.458068 -7.355611 0.001692 3.438068 178.835103 5.923450 -0.000004 -0.000004 -1.383680 -10.926849 4.423495 0.671815 -0.000005 0.000000 -0.209361 72.552810 -7.267119 -0.795652 25.456960 7.355605 -0.000006 
53.814899 -17.103716 94.080399 -7.105361 -0.302362 -2.331300 -1.159143 0.360668 0.327044 1.683975 0.726538 0.663179 3.329073 0.734410 0.654483 15.250129 -0.657101 -1.712087 -14.752824 -9.309299 -1.937030 -14.302829 -74.369149 -17.330026 125.010685 -50.838222 52.900560 0.000001 -0.000001 -0.000000 105.937696 11.439355 -23.302589 -0.000000 0.000006 -3.000003 -5.000272 -7.998975 0.000200 5.066738 66.226846 -4.798227 -47.382931 116.348352 73.260814 -0.000001 0.000000 -0.000002 110.693331 -2.981615 16.205490 -0.000005 0.000023 3.000001 -5.000295 7.999061 -0.000135 1.098751 -174.591984 0.767923 -179.999991 0.000004 -0.942998 166.916819 1.013010 -0.909586 -0.000011 -0.000001 0.093751 71.073091 5.411348 6.004255 25.458072 -7.355610 0.001692 3.439920 178.826114 5.920412 -0.000005 -0.000004 -1.384031 -10.939723 4.419091 0.672215 -0.000005 0.000001 -0.209660 72.552947 -7.265322 -0.800765 25.456964 7.355604 -0.000006 
53.810398 -17.095716 94.082397 -7.115583 -0.295456 -2.315402 -1.148903 0.358343 0.325743 1.704685 0.720887 0.659822 3.349771 0.728721 0.651188 15.101562 -0.638922 -1.724821 -14.689956 -9.337996 -1.945277 -14.288489 -74.334042 -17.313568 125.016204 -51.129959 52.921836 0.000002 0.000005 -0.000000 106.223375 11.563381 -23.658616 0.000002 0.000011 -2.999996 -5.000271 -7.998975 0.000198 4.965620 66.217994 -4.685920 -47.354152 116.272578 73.567865 0.000001 -0.000001 -0.000003 110.657930 -3.044710 16.330038 -0.000005 0.000021 3.000000 -5.000295 7.999064 -0.000137 1.117843 -174.603022 0.767089 -179.999991 0.000004 -0.943996 166.925029 1.010116 -0.909414 -0.000011 -0.000001 0.093731 71.073876 5.414168 5.998587 25.458067 -7.355611 0.001693 3.441469 178.817126 5.916741 -0.000005 -0.000004 -1.384360 -10.952105 4.415146 0.672627 -0.000005 0.000000 -0.209961 72.552694 -7.263613 -0.805617 25.456957 7.355606 -0.000006 
53.807301 -17.097418 94.081406 -7.125012 -0.288273 -2.299474 -1.138831 0.355916 0.324362 1.725025 0.714978 0.656275 3.370108 0.722771 0.647705 14.957293 -0.619556 -1.737169 -14.634939 -9.367712 -1.953893 -14.272466 -74.294215 -17.295149 125.019195 -51.426393 52.939164 0.000002 -0.000001 -0.000000 106.524300 11.689699 -24.032241 0.000002 0.000004 -2.999999 -5.000273 -7.998975 0.000197 4.858740 66.208350 -4.567238 -47.328741 116.202254 73.863100 0.000001 -0.000001 -0.000001 110.616266 -3.105669 16.445979 -0.000003 0.000022 3.000001 -5.000298 7.999064 -0.000131 1.136424 -174.615057 0.765812 -179.999991 0.000005 -0.945007 166.933839 1.007239 -0.909248 -0.000012 -0.000000 0.093708 71.074293 5.417196 5.992673 25.458067 -7.355611 0.001693 3.442441 178.808151 5.912551 -0.000005 -0.000004 -1.384651 -10.964089 4.411609 0.673058 -0.000005 0.000001 -0.210256 72.552148 -7.262017 -0.810208 25.456959 7.355606 -0.000006 
